<?xml version="1.0" encoding="UTF-8"?>
<!DOCTYPE svg PUBLIC "-//W3C//DTD SVG 1.0//EN" "http://www.w3.org/TR/2001/REC-SVG-20010904/DTD/svg10.dtd">
<svg viewBox="0 0 1408 1120" xmlns="http://www.w3.org/2000/svg" xmlns:inkspace="http://www.inkscape.org/namespaces/inkscape" xmlns:xlink="http://www.w3.org/1999/xlink">
  <defs id="defs_block">
    <filter height="1.504" id="filter_blur" inkspace:collect="always" width="1.1575" x="-0.07875" y="-0.252">
      <feGaussianBlur id="feGaussianBlur3780" inkspace:collect="always" stdDeviation="4.2"/>
    </filter>
  </defs>
  <title>blockdiag</title>
  <desc>seqdiag {
  cli  -&gt; bash [label = "recursive-downloader.sh"];
  bash -&gt; "$EDITOR" [label = "$EDITOR $URI_FILE"];
  bash &lt;- "$EDITOR";
  bash -&gt; "node CasperJS" [label = "casperjs.js spider.js"];
  "node CasperJS" -&gt; "node CasperJS" [label = "bootstrap.js"];
  "node CasperJS" -&gt; "node PhantomJS" [label = "phantom.injectJs(phantom.casperScript)"];
  "node PhantomJS" -&gt; webserver [label = "spider"];
  "node PhantomJS" &lt;- webserver;
  "node CasperJS" &lt;- "node PhantomJS";
  bash &lt;- "node CasperJS" [label = "downloads manifest"];
  bash -&gt; "$EDITOR" [label = "$EDITOR $aria_downloads_manifest"];
  bash &lt;- "$EDITOR";
  bash -&gt; aria2c [label = "aria2c $aria_downloads_manifest"];
  aria2c -&gt; webserver [label = "GET"];
  aria2c &lt;- webserver [label = "download"];
}</desc>
  <rect fill="rgb(0,0,0)" height="957" style="filter:url(#filter_blur);opacity:0.7;fill-opacity:1" width="8" x="127" y="141"/>
  <rect fill="rgb(0,0,0)" height="957" style="filter:url(#filter_blur);opacity:0.7;fill-opacity:1" width="8" x="319" y="141"/>
  <rect fill="rgb(0,0,0)" height="50" style="filter:url(#filter_blur);opacity:0.7;fill-opacity:1" width="8" x="511" y="209"/>
  <rect fill="rgb(0,0,0)" height="50" style="filter:url(#filter_blur);opacity:0.7;fill-opacity:1" width="8" x="511" y="804"/>
  <rect fill="rgb(0,0,0)" height="397" style="filter:url(#filter_blur);opacity:0.7;fill-opacity:1" width="8" x="703" y="326"/>
  <rect fill="rgb(0,0,0)" height="167" style="filter:url(#filter_blur);opacity:0.7;fill-opacity:1" width="8" x="895" y="491"/>
  <rect fill="rgb(0,0,0)" height="50" style="filter:url(#filter_blur);opacity:0.7;fill-opacity:1" width="8" x="1087" y="558"/>
  <rect fill="rgb(0,0,0)" height="65" style="filter:url(#filter_blur);opacity:0.7;fill-opacity:1" width="8" x="1087" y="987"/>
  <rect fill="rgb(0,0,0)" height="176" style="filter:url(#filter_blur);opacity:0.7;fill-opacity:1" width="8" x="1279" y="922"/>
  <rect fill="rgb(0,0,0)" height="40" stroke="rgb(0,0,0)" style="filter:url(#filter_blur);opacity:0.7;fill-opacity:1" width="128" x="67" y="46"/>
  <rect fill="rgb(0,0,0)" height="40" stroke="rgb(0,0,0)" style="filter:url(#filter_blur);opacity:0.7;fill-opacity:1" width="128" x="259" y="46"/>
  <rect fill="rgb(0,0,0)" height="40" stroke="rgb(0,0,0)" style="filter:url(#filter_blur);opacity:0.7;fill-opacity:1" width="128" x="451" y="46"/>
  <rect fill="rgb(0,0,0)" height="40" stroke="rgb(0,0,0)" style="filter:url(#filter_blur);opacity:0.7;fill-opacity:1" width="128" x="643" y="46"/>
  <rect fill="rgb(0,0,0)" height="40" stroke="rgb(0,0,0)" style="filter:url(#filter_blur);opacity:0.7;fill-opacity:1" width="128" x="835" y="46"/>
  <rect fill="rgb(0,0,0)" height="40" stroke="rgb(0,0,0)" style="filter:url(#filter_blur);opacity:0.7;fill-opacity:1" width="128" x="1027" y="46"/>
  <rect fill="rgb(0,0,0)" height="40" stroke="rgb(0,0,0)" style="filter:url(#filter_blur);opacity:0.7;fill-opacity:1" width="128" x="1219" y="46"/>
  <path d="M 128 80 L 128 1108" fill="none" stroke="rgb(0,0,0)" stroke-dasharray="8 4"/>
  <rect fill="moccasin" height="957" stroke="rgb(0,0,0)" width="8" x="124" y="135"/>
  <path d="M 320 80 L 320 1108" fill="none" stroke="rgb(0,0,0)" stroke-dasharray="8 4"/>
  <rect fill="moccasin" height="957" stroke="rgb(0,0,0)" width="8" x="316" y="135"/>
  <path d="M 512 80 L 512 1108" fill="none" stroke="rgb(0,0,0)" stroke-dasharray="8 4"/>
  <rect fill="moccasin" height="50" stroke="rgb(0,0,0)" width="8" x="508" y="203"/>
  <rect fill="moccasin" height="50" stroke="rgb(0,0,0)" width="8" x="508" y="798"/>
  <path d="M 704 80 L 704 1108" fill="none" stroke="rgb(0,0,0)" stroke-dasharray="8 4"/>
  <rect fill="moccasin" height="397" stroke="rgb(0,0,0)" width="8" x="700" y="320"/>
  <path d="M 896 80 L 896 1108" fill="none" stroke="rgb(0,0,0)" stroke-dasharray="8 4"/>
  <rect fill="moccasin" height="167" stroke="rgb(0,0,0)" width="8" x="892" y="485"/>
  <path d="M 1088 80 L 1088 1108" fill="none" stroke="rgb(0,0,0)" stroke-dasharray="8 4"/>
  <rect fill="moccasin" height="50" stroke="rgb(0,0,0)" width="8" x="1084" y="552"/>
  <rect fill="moccasin" height="65" stroke="rgb(0,0,0)" width="8" x="1084" y="981"/>
  <path d="M 1280 80 L 1280 1108" fill="none" stroke="rgb(0,0,0)" stroke-dasharray="8 4"/>
  <rect fill="moccasin" height="176" stroke="rgb(0,0,0)" width="8" x="1276" y="916"/>
  <rect fill="rgb(255,255,255)" height="40" stroke="rgb(0,0,0)" width="128" x="64" y="40"/>
  <text fill="rgb(0,0,0)" font-family="sans-serif" font-size="11" font-style="normal" font-weight="normal" text-anchor="middle" textLength="14" x="128.0" y="66">cli</text>
  <rect fill="rgb(255,255,255)" height="40" stroke="rgb(0,0,0)" width="128" x="256" y="40"/>
  <text fill="rgb(0,0,0)" font-family="sans-serif" font-size="11" font-style="normal" font-weight="normal" text-anchor="middle" textLength="26" x="320.0" y="66">bash</text>
  <rect fill="rgb(255,255,255)" height="40" stroke="rgb(0,0,0)" width="128" x="448" y="40"/>
  <text fill="rgb(0,0,0)" font-family="sans-serif" font-size="11" font-style="normal" font-weight="normal" text-anchor="middle" textLength="54" x="512.0" y="67">$EDITOR</text>
  <rect fill="rgb(255,255,255)" height="40" stroke="rgb(0,0,0)" width="128" x="640" y="40"/>
  <text fill="rgb(0,0,0)" font-family="sans-serif" font-size="11" font-style="normal" font-weight="normal" text-anchor="middle" textLength="82" x="704.0" y="67">node CasperJS</text>
  <rect fill="rgb(255,255,255)" height="40" stroke="rgb(0,0,0)" width="128" x="832" y="40"/>
  <text fill="rgb(0,0,0)" font-family="sans-serif" font-size="11" font-style="normal" font-weight="normal" text-anchor="middle" textLength="92" x="896.0" y="67">node PhantomJS</text>
  <rect fill="rgb(255,255,255)" height="40" stroke="rgb(0,0,0)" width="128" x="1024" y="40"/>
  <text fill="rgb(0,0,0)" font-family="sans-serif" font-size="11" font-style="normal" font-weight="normal" text-anchor="middle" textLength="59" x="1088.5" y="66">webserver</text>
  <rect fill="rgb(255,255,255)" height="40" stroke="rgb(0,0,0)" width="128" x="1216" y="40"/>
  <text fill="rgb(0,0,0)" font-family="sans-serif" font-size="11" font-style="normal" font-weight="normal" text-anchor="middle" textLength="35" x="1280.5" y="66">aria2c</text>
  <path d="M 136 135 L 312 135" fill="none" stroke="rgb(0,0,0)"/>
  <polygon fill="rgb(0,0,0)" points="304,131 312,135 304,139" stroke="rgb(0,0,0)"/>
  <path d="M 328 203 L 504 203" fill="none" stroke="rgb(0,0,0)"/>
  <polygon fill="rgb(0,0,0)" points="496,199 504,203 496,207" stroke="rgb(0,0,0)"/>
  <path d="M 328 253 L 504 253" fill="none" stroke="rgb(0,0,0)"/>
  <polygon fill="rgb(0,0,0)" points="336,249 328,253 336,257" stroke="rgb(0,0,0)"/>
  <path d="M 328 320 L 696 320" fill="none" stroke="rgb(0,0,0)"/>
  <polygon fill="rgb(0,0,0)" points="688,316 696,320 688,324" stroke="rgb(0,0,0)"/>
  <path d="M 712 387 L 800 387" fill="none" stroke="rgb(0,0,0)"/>
  <path d="M 800 387 L 800 403" fill="none" stroke="rgb(0,0,0)"/>
  <path d="M 800 403 L 712 403" fill="none" stroke="rgb(0,0,0)"/>
  <polygon fill="rgb(0,0,0)" points="720,399 712,403 720,407" stroke="rgb(0,0,0)"/>
  <path d="M 712 485 L 888 485" fill="none" stroke="rgb(0,0,0)"/>
  <polygon fill="rgb(0,0,0)" points="880,481 888,485 880,489" stroke="rgb(0,0,0)"/>
  <path d="M 904 552 L 1080 552" fill="none" stroke="rgb(0,0,0)"/>
  <polygon fill="rgb(0,0,0)" points="1072,548 1080,552 1072,556" stroke="rgb(0,0,0)"/>
  <path d="M 904 602 L 1080 602" fill="none" stroke="rgb(0,0,0)"/>
  <polygon fill="rgb(0,0,0)" points="912,598 904,602 912,606" stroke="rgb(0,0,0)"/>
  <path d="M 712 652 L 888 652" fill="none" stroke="rgb(0,0,0)"/>
  <polygon fill="rgb(0,0,0)" points="720,648 712,652 720,656" stroke="rgb(0,0,0)"/>
  <path d="M 328 717 L 696 717" fill="none" stroke="rgb(0,0,0)"/>
  <polygon fill="rgb(0,0,0)" points="336,713 328,717 336,721" stroke="rgb(0,0,0)"/>
  <path d="M 328 798 L 504 798" fill="none" stroke="rgb(0,0,0)"/>
  <polygon fill="rgb(0,0,0)" points="496,794 504,798 496,802" stroke="rgb(0,0,0)"/>
  <path d="M 328 848 L 504 848" fill="none" stroke="rgb(0,0,0)"/>
  <polygon fill="rgb(0,0,0)" points="336,844 328,848 336,852" stroke="rgb(0,0,0)"/>
  <path d="M 328 916 L 1272 916" fill="none" stroke="rgb(0,0,0)"/>
  <polygon fill="rgb(0,0,0)" points="1264,912 1272,916 1264,920" stroke="rgb(0,0,0)"/>
  <path d="M 1096 981 L 1272 981" fill="none" stroke="rgb(0,0,0)"/>
  <polygon fill="rgb(0,0,0)" points="1104,977 1096,981 1104,985" stroke="rgb(0,0,0)"/>
  <path d="M 1096 1046 L 1272 1046" fill="none" stroke="rgb(0,0,0)"/>
  <polygon fill="rgb(0,0,0)" points="1264,1042 1272,1046 1264,1050" stroke="rgb(0,0,0)"/>
  <text fill="rgb(0,0,0)" font-family="sans-serif" font-size="11" font-style="normal" font-weight="normal" text-anchor="middle" textLength="137" x="212.5" y="131">recursive-downloader.sh</text>
  <text fill="rgb(0,0,0)" font-family="sans-serif" font-size="11" font-style="normal" font-weight="normal" text-anchor="middle" textLength="118" x="395.0" y="199">$EDITOR $URI_FILE</text>
  <text fill="rgb(0,0,0)" font-family="sans-serif" font-size="11" font-style="normal" font-weight="normal" text-anchor="middle" textLength="109" x="390.5" y="316">casperjs.js spider.js</text>
  <text fill="rgb(0,0,0)" font-family="sans-serif" font-size="11" font-style="normal" font-weight="normal" text-anchor="middle" textLength="67" x="749.5" y="383">bootstrap.js</text>
  <text fill="rgb(0,0,0)" font-family="sans-serif" font-size="11" font-style="normal" font-weight="normal" text-anchor="middle" textLength="164" x="802.0" y="466">phantom.injectJs(phantom.ca</text>
  <text fill="rgb(0,0,0)" font-family="sans-serif" font-size="11" font-style="normal" font-weight="normal" text-anchor="middle" textLength="63" x="751.5" y="481">sperScript)</text>
  <text fill="rgb(0,0,0)" font-family="sans-serif" font-size="11" font-style="normal" font-weight="normal" text-anchor="middle" textLength="36" x="930.0" y="548">spider</text>
  <text fill="rgb(0,0,0)" font-family="sans-serif" font-size="11" font-style="normal" font-weight="normal" text-anchor="middle" textLength="112" x="636.0" y="713">downloads manifest</text>
  <text fill="rgb(0,0,0)" font-family="sans-serif" font-size="11" font-style="normal" font-weight="normal" text-anchor="middle" textLength="167" x="419.5" y="781">$EDITOR $aria_downloads_m</text>
  <text fill="rgb(0,0,0)" font-family="sans-serif" font-size="11" font-style="normal" font-weight="normal" text-anchor="middle" textLength="38" x="355.0" y="794">anifest</text>
  <text fill="rgb(0,0,0)" font-family="sans-serif" font-size="11" font-style="normal" font-weight="normal" text-anchor="middle" textLength="187" x="429.5" y="912">aria2c $aria_downloads_manifest</text>
  <text fill="rgb(0,0,0)" font-family="sans-serif" font-size="11" font-style="normal" font-weight="normal" text-anchor="middle" textLength="25" x="1255.5" y="977">GET</text>
  <text fill="rgb(0,0,0)" font-family="sans-serif" font-size="11" font-style="normal" font-weight="normal" text-anchor="middle" textLength="54" x="1131.0" y="1042">download</text>
</svg>